name rise45.9887peak57.8056fall74.9286.mot
datacolumns 19
datarows 15
range 17.43993900000000 17.46326500000000
endheader
time	ground_force1_vx	ground_force1_vy	ground_force1_vz	ground_force1_px	ground_force1_py	ground_force1_pz	ground_force2_vx	ground_force2_vy	ground_force2_vz	ground_force2_px	ground_force2_py	ground_force2_pz	ground_torque1_x	ground_torque1_y	ground_torque1_z	ground_torque2_x	ground_torque2_y	ground_torque2_z	
17.43993900000000	2.85093100000000	709.37979299999995	42.11718900000000	0.18676000000000	0.00000000000000	0.12469600000000	0.00000000000000	0.00000000000000	0.00000000000000	0.00000000000000	0.00000000000000	0.00000000000000	0.00000000000000	14.90419400000000	0.00000000000000	0.00000000000000	0.00000000000000	0.00000000000000	
17.44162300000000	2.47271100000000	710.65555700000004	42.12475900000000	0.18593300000000	0.00000000000000	0.12465900000000	0.00000000000000	0.00000000000000	0.00000000000000	0.00000000000000	0.00000000000000	0.00000000000000	0.00000000000000	14.96023400000000	0.00000000000000	0.00000000000000	0.00000000000000	0.00000000000000	
17.44326500000000	2.08177800000000	711.95880599999998	42.13867100000000	0.18508200000000	0.00000000000000	0.12462400000000	0.00000000000000	0.00000000000000	0.00000000000000	0.00000000000000	0.00000000000000	0.00000000000000	0.00000000000000	15.02106100000000	0.00000000000000	0.00000000000000	0.00000000000000	0.00000000000000	
17.44493200000000	1.67806500000000	713.28742299999999	42.15865600000000	0.18420700000000	0.00000000000000	0.12459100000000	0.00000000000000	0.00000000000000	0.00000000000000	0.00000000000000	0.00000000000000	0.00000000000000	0.00000000000000	15.08658400000000	0.00000000000000	0.00000000000000	0.00000000000000	0.00000000000000	
17.44660200000000	1.26156200000000	714.63933999999995	42.18443900000000	0.18330900000000	0.00000000000000	0.12456100000000	0.00000000000000	0.00000000000000	0.00000000000000	0.00000000000000	0.00000000000000	0.00000000000000	0.00000000000000	15.15670600000000	0.00000000000000	0.00000000000000	0.00000000000000	0.00000000000000	
17.44827300000000	0.83231700000000	716.01254800000004	42.21574900000000	0.18238900000000	0.00000000000000	0.12453300000000	0.00000000000000	0.00000000000000	0.00000000000000	0.00000000000000	0.00000000000000	0.00000000000000	0.00000000000000	15.23132000000000	0.00000000000000	0.00000000000000	0.00000000000000	0.00000000000000	
17.44993800000000	0.39043500000000	717.40509099999997	42.25231000000000	0.18144900000000	0.00000000000000	0.12450700000000	0.00000000000000	0.00000000000000	0.00000000000000	0.00000000000000	0.00000000000000	0.00000000000000	0.00000000000000	15.31031100000000	0.00000000000000	0.00000000000000	0.00000000000000	0.00000000000000	
17.45159800000000	-0.06392600000000	718.81508199999996	42.29385000000000	0.18048900000000	0.00000000000000	0.12448300000000	0.00000000000000	0.00000000000000	0.00000000000000	0.00000000000000	0.00000000000000	0.00000000000000	0.00000000000000	15.39355800000000	0.00000000000000	0.00000000000000	0.00000000000000	0.00000000000000	
17.45326800000000	-0.53055000000000	720.24069399999996	42.34009500000000	0.17951100000000	0.00000000000000	0.12446100000000	0.00000000000000	0.00000000000000	0.00000000000000	0.00000000000000	0.00000000000000	0.00000000000000	0.00000000000000	15.48093000000000	0.00000000000000	0.00000000000000	0.00000000000000	0.00000000000000	
17.45493700000000	-1.00917000000000	721.68017099999997	42.39077800000000	0.17851700000000	0.00000000000000	0.12444100000000	0.00000000000000	0.00000000000000	0.00000000000000	0.00000000000000	0.00000000000000	0.00000000000000	0.00000000000000	15.57229000000000	0.00000000000000	0.00000000000000	0.00000000000000	0.00000000000000	
17.45660300000000	-1.49946900000000	723.13182700000004	42.44563000000000	0.17750800000000	0.00000000000000	0.12442200000000	0.00000000000000	0.00000000000000	0.00000000000000	0.00000000000000	0.00000000000000	0.00000000000000	0.00000000000000	15.66749200000000	0.00000000000000	0.00000000000000	0.00000000000000	0.00000000000000	
17.45829100000000	-2.00108200000000	724.59404600000005	42.50439000000000	0.17648500000000	0.00000000000000	0.12440500000000	0.00000000000000	0.00000000000000	0.00000000000000	0.00000000000000	0.00000000000000	0.00000000000000	0.00000000000000	15.76638500000000	0.00000000000000	0.00000000000000	0.00000000000000	0.00000000000000	
17.45993800000000	-2.51359400000000	726.06528700000001	42.56680000000000	0.17545000000000	0.00000000000000	0.12439000000000	0.00000000000000	0.00000000000000	0.00000000000000	0.00000000000000	0.00000000000000	0.00000000000000	0.00000000000000	15.86881000000000	0.00000000000000	0.00000000000000	0.00000000000000	0.00000000000000	
17.46160200000000	-3.03655000000000	727.54408200000000	42.63260800000000	0.17440500000000	0.00000000000000	0.12437500000000	0.00000000000000	0.00000000000000	0.00000000000000	0.00000000000000	0.00000000000000	0.00000000000000	0.00000000000000	15.97460200000000	0.00000000000000	0.00000000000000	0.00000000000000	0.00000000000000	
17.46326500000000	-3.56945100000000	729.02903700000002	42.70156800000000	0.17335100000000	0.00000000000000	0.12436200000000	0.00000000000000	0.00000000000000	0.00000000000000	0.00000000000000	0.00000000000000	0.00000000000000	0.00000000000000	16.08358900000000	0.00000000000000	0.00000000000000	0.00000000000000	0.00000000000000	
